<?xml version="1.0" encoding="UTF-8" standalone="no"?>
<!DOCTYPE svg PUBLIC "-//W3C//DTD SVG 1.1//EN"
 "http://www.w3.org/Graphics/SVG/1.1/DTD/svg11.dtd">
<!-- Generated by graphviz version 2.48.0 (20210717.1556)
 -->
<!-- Pages: 1 -->
<svg width="383pt" height="435pt"
 viewBox="0.00 0.00 383.00 435.10" xmlns="http://www.w3.org/2000/svg" xmlns:xlink="http://www.w3.org/1999/xlink">
<g id="graph0" class="graph" transform="scale(1 1) rotate(0) translate(4 431.1)">
<polygon fill="white" stroke="transparent" points="-4,4 -4,-431.1 379,-431.1 379,4 -4,4"/>
<!-- In0 -->
<g id="node1" class="node">
<title>In0</title>
<polygon fill="lightgray" stroke="black" points="218.5,-357.35 189.5,-357.35 189.5,-339.35 218.5,-339.35 218.5,-357.35"/>
<text text-anchor="middle" x="204" y="-346.15" font-family="Times New Roman,serif" font-size="9.00">In0</text>
</g>
<!-- act2 -->
<g id="node6" class="node">
<title>act2</title>
<ellipse fill="lightblue" stroke="black" cx="242" cy="-22.63" rx="22.76" ry="22.76"/>
<text text-anchor="middle" x="242" y="-20.43" font-family="Times New Roman,serif" font-size="9.00">act2</text>
</g>
<!-- In0&#45;&gt;act2 -->
<g id="edge1" class="edge">
<title>In0&#45;&gt;act2</title>
<path fill="none" stroke="green" stroke-width="0.19" d="M204.94,-339.35C209.54,-300.18 229.8,-127.6 238.26,-55.48"/>
<polygon fill="green" stroke="green" stroke-width="0.19" points="241.78,-55.54 239.47,-45.2 234.83,-54.72 241.78,-55.54"/>
</g>
<!-- 258 -->
<g id="node8" class="node">
<title>258</title>
<ellipse fill="white" stroke="black" cx="151" cy="-180.89" rx="21.43" ry="21.43"/>
<text text-anchor="middle" x="151" y="-178.69" font-family="Times New Roman,serif" font-size="9.00">258</text>
</g>
<!-- In0&#45;&gt;258 -->
<g id="edge9" class="edge">
<title>In0&#45;&gt;258</title>
<path fill="none" stroke="red" stroke-width="0.4" stroke-dasharray="1,5" d="M203.61,-339.13C202.5,-320.56 198.49,-274.17 185,-238.11 181,-227.42 174.94,-216.5 169.03,-207.17"/>
<polygon fill="red" stroke="red" stroke-width="0.4" points="171.91,-205.18 163.49,-198.76 166.07,-209.04 171.91,-205.18"/>
</g>
<!-- 1058 -->
<g id="node9" class="node">
<title>1058</title>
<ellipse fill="white" stroke="black" cx="151" cy="-262.86" rx="25" ry="25"/>
<text text-anchor="middle" x="151" y="-260.66" font-family="Times New Roman,serif" font-size="9.00">1058</text>
</g>
<!-- In0&#45;&gt;1058 -->
<g id="edge14" class="edge">
<title>In0&#45;&gt;1058</title>
<path fill="none" stroke="green" stroke-width="0.13" d="M198.92,-339.35C192.19,-328.74 179.94,-309.45 169.52,-293.03"/>
<polygon fill="green" stroke="green" stroke-width="0.13" points="172.27,-290.84 163.96,-284.27 166.36,-294.59 172.27,-290.84"/>
</g>
<!-- In1 -->
<g id="node2" class="node">
<title>In1</title>
<polygon fill="lightgray" stroke="black" points="299.5,-111.47 270.5,-111.47 270.5,-93.47 299.5,-93.47 299.5,-111.47"/>
<text text-anchor="middle" x="285" y="-100.27" font-family="Times New Roman,serif" font-size="9.00">In1</text>
</g>
<!-- act1 -->
<g id="node5" class="node">
<title>act1</title>
<ellipse fill="lightblue" stroke="black" cx="332" cy="-22.63" rx="22.76" ry="22.76"/>
<text text-anchor="middle" x="332" y="-20.43" font-family="Times New Roman,serif" font-size="9.00">act1</text>
</g>
<!-- In1&#45;&gt;act1 -->
<g id="edge2" class="edge">
<title>In1&#45;&gt;act1</title>
<path fill="none" stroke="red" stroke-width="0.11" stroke-dasharray="1,5" d="M289.85,-93.43C295.84,-83.52 306.32,-66.16 315.33,-51.24"/>
<polygon fill="red" stroke="red" stroke-width="0.11" points="318.53,-52.71 320.7,-42.34 312.53,-49.09 318.53,-52.71"/>
</g>
<!-- In1&#45;&gt;act2 -->
<g id="edge3" class="edge">
<title>In1&#45;&gt;act2</title>
<path fill="none" stroke="green" stroke-width="0.46" d="M280.56,-93.43C275.16,-83.65 265.75,-66.61 257.57,-51.82"/>
<polygon fill="green" stroke="green" stroke-width="0.46" points="260.59,-50.04 252.69,-42.98 254.46,-53.43 260.59,-50.04"/>
</g>
<!-- In3 -->
<g id="node3" class="node">
<title>In3</title>
<polygon fill="lightgray" stroke="black" points="105.5,-427.1 76.5,-427.1 76.5,-409.1 105.5,-409.1 105.5,-427.1"/>
<text text-anchor="middle" x="91" y="-415.9" font-family="Times New Roman,serif" font-size="9.00">In3</text>
</g>
<!-- In3&#45;&gt;act1 -->
<g id="edge4" class="edge">
<title>In3&#45;&gt;act1</title>
<path fill="none" stroke="red" stroke-width="0.84" d="M105.87,-416.21C164.3,-411.81 375,-387.39 375,-263.86 375,-263.86 375,-263.86 375,-179.89 375,-135.25 368.87,-124 356,-81.25 353.13,-71.73 349.23,-61.62 345.42,-52.58"/>
<polygon fill="red" stroke="red" stroke-width="0.84" points="348.56,-51.03 341.35,-43.26 342.14,-53.83 348.56,-51.03"/>
</g>
<!-- In3&#45;&gt;act2 -->
<g id="edge5" class="edge">
<title>In3&#45;&gt;act2</title>
<path fill="none" stroke="green" stroke-width="0.78" d="M77.46,-408.92C65.54,-401.09 48.5,-388.24 38,-373.1 8.71,-330.86 0,-315.26 0,-263.86 0,-263.86 0,-263.86 0,-179.89 0,-81.15 143.94,-41.77 209.8,-28.92"/>
<polygon fill="green" stroke="green" stroke-width="0.78" points="210.48,-32.35 219.67,-27.08 209.19,-25.47 210.48,-32.35"/>
</g>
<!-- In3&#45;&gt;258 -->
<g id="edge11" class="edge">
<title>In3&#45;&gt;258</title>
<path fill="none" stroke="red" stroke-width="0.14" stroke-dasharray="1,5" d="M82.03,-409.04C73.72,-400.92 61.93,-387.54 57,-373.1 37.62,-316.32 27.4,-290.3 57,-238.11 70.59,-214.15 98.88,-199.31 120.9,-190.94"/>
<polygon fill="red" stroke="red" stroke-width="0.14" points="122.24,-194.18 130.5,-187.54 119.9,-187.58 122.24,-194.18"/>
</g>
<!-- 1210 -->
<g id="node10" class="node">
<title>1210</title>
<ellipse fill="white" stroke="black" cx="91" cy="-348.35" rx="25" ry="25"/>
<text text-anchor="middle" x="91" y="-346.15" font-family="Times New Roman,serif" font-size="9.00">1210</text>
</g>
<!-- In3&#45;&gt;1210 -->
<g id="edge16" class="edge">
<title>In3&#45;&gt;1210</title>
<path fill="none" stroke="green" stroke-width="0.45" d="M91,-409.06C91,-402.63 91,-393.13 91,-383.6"/>
<polygon fill="green" stroke="green" stroke-width="0.45" points="94.5,-383.38 91,-373.38 87.5,-383.38 94.5,-383.38"/>
</g>
<!-- 347 -->
<g id="node11" class="node">
<title>347</title>
<ellipse fill="white" stroke="black" cx="87" cy="-262.86" rx="21.43" ry="21.43"/>
<text text-anchor="middle" x="87" y="-260.66" font-family="Times New Roman,serif" font-size="9.00">347</text>
</g>
<!-- In3&#45;&gt;347 -->
<g id="edge12" class="edge">
<title>In3&#45;&gt;347</title>
<path fill="none" stroke="green" stroke-width="0.4" stroke-dasharray="1,5" d="M99.97,-409.04C108.28,-400.92 120.07,-387.54 125,-373.1 132.11,-352.28 131.15,-344.73 125,-323.61 121.24,-310.7 113.76,-297.91 106.42,-287.5"/>
<polygon fill="green" stroke="green" stroke-width="0.4" points="109.15,-285.3 100.37,-279.36 103.53,-289.48 109.15,-285.3"/>
</g>
<!-- In4 -->
<g id="node4" class="node">
<title>In4</title>
<polygon fill="lightgray" stroke="black" points="346.5,-111.47 317.5,-111.47 317.5,-93.47 346.5,-93.47 346.5,-111.47"/>
<text text-anchor="middle" x="332" y="-100.27" font-family="Times New Roman,serif" font-size="9.00">In4</text>
</g>
<!-- In4&#45;&gt;act1 -->
<g id="edge6" class="edge">
<title>In4&#45;&gt;act1</title>
<path fill="none" stroke="green" stroke-width="0.12" d="M332,-93.43C332,-84.45 332,-69.36 332,-55.5"/>
<polygon fill="green" stroke="green" stroke-width="0.12" points="335.5,-55.26 332,-45.26 328.5,-55.26 335.5,-55.26"/>
</g>
<!-- In4&#45;&gt;act2 -->
<g id="edge7" class="edge">
<title>In4&#45;&gt;act2</title>
<path fill="none" stroke="green" stroke-width="0.8" d="M322.62,-93.18C318.46,-89.52 313.49,-85.16 309,-81.25 295.04,-69.12 279.36,-55.63 266.69,-44.75"/>
<polygon fill="green" stroke="green" stroke-width="0.8" points="268.71,-41.88 258.84,-38.02 264.15,-47.19 268.71,-41.88"/>
</g>
<!-- 129 -->
<g id="node7" class="node">
<title>129</title>
<ellipse fill="white" stroke="black" cx="172" cy="-102.47" rx="21.43" ry="21.43"/>
<text text-anchor="middle" x="172" y="-100.27" font-family="Times New Roman,serif" font-size="9.00">129</text>
</g>
<!-- 129&#45;&gt;act2 -->
<g id="edge8" class="edge">
<title>129&#45;&gt;act2</title>
<path fill="none" stroke="green" stroke-width="0.66" stroke-dasharray="1,5" d="M185.83,-86.09C195.73,-75.08 209.25,-60.05 220.54,-47.49"/>
<polygon fill="green" stroke="green" stroke-width="0.66" points="223.15,-49.83 227.23,-40.05 217.94,-45.14 223.15,-49.83"/>
</g>
<!-- 258&#45;&gt;129 -->
<g id="edge10" class="edge">
<title>258&#45;&gt;129</title>
<path fill="none" stroke="green" stroke-width="0.44" d="M156.41,-160.21C158.69,-151.92 161.39,-142.1 163.89,-132.97"/>
<polygon fill="green" stroke="green" stroke-width="0.44" points="167.34,-133.65 166.61,-123.08 160.59,-131.8 167.34,-133.65"/>
</g>
<!-- 1058&#45;&gt;258 -->
<g id="edge15" class="edge">
<title>1058&#45;&gt;258</title>
<path fill="none" stroke="green" stroke-width="0.39" d="M151,-237.87C151,-229.91 151,-220.94 151,-212.55"/>
<polygon fill="green" stroke="green" stroke-width="0.39" points="154.5,-212.36 151,-202.36 147.5,-212.36 154.5,-212.36"/>
</g>
<!-- 1210&#45;&gt;347 -->
<g id="edge17" class="edge">
<title>1210&#45;&gt;347</title>
<path fill="none" stroke="green" stroke-width="0.28" d="M89.84,-323.2C89.41,-314.24 88.92,-303.96 88.47,-294.5"/>
<polygon fill="green" stroke="green" stroke-width="0.28" points="91.95,-294.1 87.98,-284.28 84.96,-294.44 91.95,-294.1"/>
</g>
<!-- 347&#45;&gt;258 -->
<g id="edge13" class="edge">
<title>347&#45;&gt;258</title>
<path fill="none" stroke="red" stroke-width="0.16" d="M99.95,-245.67C109.06,-234.29 121.41,-218.87 131.67,-206.04"/>
<polygon fill="red" stroke="red" stroke-width="0.16" points="134.55,-208.05 138.07,-198.05 129.09,-203.67 134.55,-208.05"/>
</g>
</g>
</svg>
